# xmcd
#
# Track frame offsets:
#	150
#	17615
#	31720
#	45858
#	67294
#	77777
#	92851
#	102651
#	118552
#	133851
#	154184
#
# Disc length: 2236 seconds
#
# Revision: 1
# Processed by: cddbd v1.5.2PL0 Copyright (c) Steve Scherf et al.
# Submitted via: audiograbber 1.83.01
#
DISCID=8c08ba0b
DTITLE=Amos Lee - Supply And Demand
DYEAR=2006
DGENRE=Jazz/Pop
TTITLE0=Shout Out Loud
TTITLE1=Sympathize
TTITLE2=Freedom
TTITLE3=Careless
TTITLE4=Skipping Stone
TTITLE5=Supply And Demand
TTITLE6=Sweet Pea
TTITLE7=Night Train
TTITLE8=Southern Girl
TTITLE9=The Wind
TTITLE10=Long Line Of Pain
EXTD=
EXTT0=
EXTT1=
EXTT2=
EXTT3=
EXTT4=
EXTT5=
EXTT6=
EXTT7=
EXTT8=
EXTT9=
EXTT10=
PLAYORDER=
